<?xml version="1.0" encoding="UTF-8" standalone="no"?>
<svg
   version="1.0"
   width="465.000000pt"
   height="537.000000pt"
   viewBox="0 0 465.000000 537.000000"
   preserveAspectRatio="xMidYMid meet"
   id="svg2"
   sodipodi:docname="thingworx.svg"
   inkscape:version="1.3.2 (091e20e, 2023-11-25, custom)"
   xmlns:inkscape="http://www.inkscape.org/namespaces/inkscape"
   xmlns:sodipodi="http://sodipodi.sourceforge.net/DTD/sodipodi-0.dtd"
   xmlns="http://www.w3.org/2000/svg"
   xmlns:svg="http://www.w3.org/2000/svg">
  <defs
     id="defs2" />
  <sodipodi:namedview
     id="namedview2"
     pagecolor="#505050"
     bordercolor="#eeeeee"
     borderopacity="1"
     inkscape:showpageshadow="0"
     inkscape:pageopacity="0"
     inkscape:pagecheckerboard="0"
     inkscape:deskcolor="#505050"
     inkscape:document-units="pt"
     inkscape:zoom="1.1941341"
     inkscape:cx="310.26666"
     inkscape:cy="358.83742"
     inkscape:window-width="1920"
     inkscape:window-height="1111"
     inkscape:window-x="-9"
     inkscape:window-y="-9"
     inkscape:window-maximized="1"
     inkscape:current-layer="svg2" />
  <g
     transform="translate(0.000000,537.000000) scale(0.100000,-0.100000)"
     fill="#000000"
     stroke="none"
     id="g2"
     style="fill:#9ca3af;fill-opacity:1">
    <path
       d="M1940 5143 c-206 -119 -400 -230 -430 -248 -155 -90 -233 -135 -236 -135 -2 0 -91 -52 -200 -115 -108 -63 -198 -115 -200 -115 -3 0 -23 -12 -47 -27 -46 -29 -397 -233 -402 -233 -1 0 -54 -30 -116 -66 -63 -37 -158 -92 -211 -123 l-98 -56 0 -587 c0 -324 3 -588 7 -588 6 0 317 179 538 311 72 42 238 139 370 214 132 76 276 159 320 185 178 107 336 200 339 200 3 0 304 174 584 339 183 107 152 104 289 26 65 -37 170 -98 233 -135 130 -77 880 -506 923 -527 15 -8 27 -18 27 -21 0 -4 -39 -29 -88 -56 -48 -28 -103 -60 -122 -73 -19 -13 -41 -23 -48 -23 -8 0 -87 42 -176 94 -88 51 -197 114 -241 139 -44 25 -127 73 -185 107 -58 35 -134 79 -170 98 -36 20 -83 47 -105 61 -79 49 -157 91 -171 91 -14 0 -328 -177 -569 -320 -71 -43 -174 -103 -229 -135 -61 -35 -95 -60 -89 -66 5 -5 90 -56 189 -112 98 -57 201 -116 228 -132 114 -70 208 -125 211 -125 2 0 41 -22 87 -48 45 -27 160 -93 253 -147 94 -54 229 -133 300 -175 146 -86 194 -114 280 -161 33 -18 83 -48 112 -66 29 -18 54 -33 57 -33 3 0 52 -28 108 -62 154 -92 219 -128 232 -128 7 0 55 26 107 57 81 49 241 143 439 258 30 18 124 72 208 121 176 102 155 90 295 173 l107 63 0 588 0 588 -37 23 c-21 12 -63 36 -93 54 -30 17 -98 57 -150 87 -52 30 -115 66 -140 80 -74 42 -364 209 -545 315 -93 55 -248 144 -344 199 -96 54 -189 108 -207 119 -18 11 -153 89 -301 174 -147 85 -321 185 -385 223 -64 37 -120 68 -125 68 -4 -1 -177 -98 -383 -217z"
       id="path1"
       style="fill:#9ca3af;fill-opacity:1" />
    <path
       d="M1039 3142 c-52 -33 -209 -125 -349 -207 -301 -174 -576 -336 -642 -377 l-48 -30 0 -592 0 -591 323 -184 c177 -102 373 -215 435 -253 63 -37 115 -68 117 -68 2 0 65 -36 141 -80 75 -44 138 -80 139 -80 2 0 49 -27 105 -60 56 -33 103 -60 106 -60 2 0 59 -33 126 -73 117 -70 467 -272 628 -363 41 -23 104 -58 139 -78 l64 -36 56 31 c31 18 76 43 101 57 25 14 133 76 240 137 107 62 218 125 245 141 28 15 111 63 185 107 74 44 270 157 435 252 165 95 338 195 385 222 90 54 108 64 265 153 289 164 389 223 397 234 13 19 10 1166 -4 1166 -9 0 -74 -34 -160 -85 -10 -5 -90 -53 -179 -105 -89 -52 -181 -106 -203 -119 -88 -51 -354 -205 -416 -241 -36 -21 -126 -74 -200 -118 -74 -44 -288 -169 -475 -277 -187 -109 -378 -220 -425 -248 -183 -109 -235 -137 -249 -137 -9 0 -130 67 -271 149 -140 81 -340 197 -445 256 -104 59 -253 145 -330 190 -77 45 -166 97 -197 115 -32 17 -58 35 -58 40 0 7 115 80 126 80 3 0 30 16 60 35 30 19 61 35 69 35 16 0 144 -72 555 -313 80 -47 161 -94 180 -104 19 -11 96 -55 171 -97 98 -55 141 -74 155 -69 10 4 132 72 269 151 138 79 330 190 427 246 98 55 178 106 178 111 0 6 -24 23 -53 39 -28 16 -171 99 -317 185 -234 136 -382 222 -515 297 -22 12 -103 59 -180 105 -77 45 -270 157 -430 249 -159 91 -347 201 -418 243 -70 42 -136 77 -146 77 -10 0 -60 -26 -112 -58z"
       id="path2"
       style="fill:#9ca3af;fill-opacity:1" />
  </g>
</svg>
